<svg width="383" height="437" viewBox="0 0 383 437" fill="none" xmlns="http://www.w3.org/2000/svg">
<path d="M289.015 436.121C179.693 446.964 88.3332 355.604 35.7862 263.28C25.6727 245.384 17.4019 226.509 11.1008 206.943C4.80597 187.572 1.12288 167.448 0.148985 147.102C-0.242655 137.136 0.138124 127.155 1.28795 117.248C2.47266 107.582 4.56271 98.0481 7.53051 88.7729C12.9174 71.0034 22.713 54.8858 36.0053 41.9209C39.0877 39.0282 42.3825 36.3704 45.862 33.9699L48.3809 32.2395L49.6075 31.3853C49.038 31.8015 50.5931 30.6843 50.4836 30.7938H50.615L50.8998 30.6624L51.4474 30.3558L55.8281 28.034L58.0185 26.9169L59.1356 26.3693L60.5374 25.7779C62.3992 25.0113 64.2172 24.2666 66.0353 23.5876C67.7608 22.8742 69.5228 22.2528 71.314 21.7258L76.2862 20.5211C87.2324 17.9875 98.5603 17.5563 109.667 19.2506C113.623 19.7351 117.535 20.5335 121.364 21.6381C123.029 22.0981 124.562 22.4705 125.942 22.9086C127.322 23.3466 128.57 23.8285 129.687 24.2447C134.068 25.9312 136.258 26.895 136.258 26.895C136.258 26.895 133.74 27.2893 129.184 27.8588L125.394 28.2969C124.014 28.494 122.503 28.8226 120.904 29.1292L115.778 30.0711C113.96 30.312 112.077 30.991 110.105 31.451C100.965 33.5931 92.1789 37.038 84.0182 41.68L80.6231 43.5857C79.5749 44.2478 78.5724 44.9795 77.6223 45.776C76.6585 46.5207 75.651 47.1998 74.6872 47.9664L73.9425 48.4921L73.0444 49.2806L71.1826 50.9015L67.3495 54.2089L66.8457 54.6251L66.6047 54.8222C66.789 54.666 66.9869 54.5267 67.1962 54.406L66.4733 55.1946L65.0496 56.7936C64.0404 57.815 63.1036 58.9055 62.2459 60.0572C61.3697 61.2181 60.4279 62.2476 59.5736 63.4961C52.2709 74.0266 47.4278 86.0634 45.402 98.7172C44.117 105.872 43.5083 113.133 43.584 120.402C43.5606 128.208 44.0435 136.007 45.0296 143.751C46.0591 151.768 47.5047 159.872 49.4103 168.108C50.3522 172.226 51.4036 176.344 52.4988 180.506L54.1635 186.748L56.0691 192.991C56.6605 195.181 57.4052 197.152 58.0842 199.255C58.7632 201.358 59.3984 203.439 60.1432 205.541C61.6545 209.681 63.0782 213.909 64.8086 218.048C108.616 310.044 169.486 416.671 281.984 435.464L289.015 436.121Z" fill="url(#paint0_linear_139_194)"/>
<path d="M93.0639 0.894472C202.385 -10.0574 293.745 81.4124 346.292 173.758C356.397 191.65 364.667 210.518 370.978 230.073C377.273 249.444 380.956 269.568 381.93 289.914C382.319 299.872 381.938 309.846 380.791 319.746C379.603 329.412 377.513 338.945 374.548 348.221C369.161 365.984 359.365 382.094 346.073 395.051C342.99 397.942 339.695 400.6 336.217 403.002L333.698 404.733L332.449 405.609C333.041 405.193 331.464 406.288 331.595 406.2H331.464L331.179 406.354L330.631 406.66L326.25 408.96L324.06 410.077L322.943 410.625L321.541 411.216C319.679 411.983 317.861 412.749 316.043 413.407C314.31 414.114 312.541 414.728 310.743 415.246L305.771 416.473C294.831 419 283.511 419.431 272.411 417.743C268.454 417.255 264.543 416.45 260.715 415.334C259.05 414.874 257.517 414.524 256.137 414.064C254.757 413.604 253.53 413.166 252.413 412.728C248.032 411.041 245.733 410.077 245.733 410.077C245.733 410.077 248.273 409.705 252.807 409.091L256.597 408.675C257.977 408.5 259.466 408.15 261.087 407.843L266.212 406.901C268.009 406.66 269.892 405.981 271.864 405.521C281.005 403.371 289.791 399.919 297.951 395.27L301.346 393.343C302.404 392.696 303.408 391.963 304.347 391.152C305.332 390.408 306.318 389.729 307.304 388.962L308.049 388.436L308.968 387.67L310.83 386.027L314.641 382.741L315.123 382.325L315.364 382.128H315.474C315.288 382.282 315.09 382.421 314.882 382.544L315.583 381.756L317.007 380.179C318.008 379.148 318.937 378.05 319.789 376.893C320.665 375.732 321.607 374.703 322.461 373.454C329.726 362.958 334.546 350.968 336.567 338.365C337.858 331.203 338.467 323.935 338.385 316.658C338.421 308.851 337.938 301.051 336.939 293.309C335.91 285.314 334.464 277.209 332.559 268.93C331.617 264.834 330.587 260.694 329.492 256.554L327.806 250.399L325.944 244.179C325.33 241.988 324.608 240.017 323.929 237.914C323.25 235.811 322.614 233.709 321.87 231.628C320.358 227.466 318.935 223.261 317.226 219.121C273.419 127.125 212.527 20.5202 100.029 1.7049L93.0639 0.894472Z" fill="url(#paint1_linear_139_194)"/>
<defs>
<linearGradient id="paint0_linear_139_194" x1="-52.5688" y1="127.041" x2="-92.8986" y2="424.77" gradientUnits="userSpaceOnUse">
<stop stop-color="#82BC34"/>
<stop offset="1" stop-color="#CEDD45"/>
</linearGradient>
<linearGradient id="paint1_linear_139_194" x1="360.316" y1="418.36" x2="488.501" y2="139.317" gradientUnits="userSpaceOnUse">
<stop stop-color="#82BC34"/>
<stop offset="1" stop-color="#CEDD45"/>
</linearGradient>
</defs>
</svg>
